<svg xmlns="http://www.w3.org/2000/svg" xml:space="preserve" width="2000" height="127" data-id="lg_gi08FGISjmTahSmLvG" data-version="1" viewBox="0 0 2000 127"><g data-padding="20"><g transform="translate(10 2.352)scale(.96296)"><path fill="#ee297b" stroke="#faf58c" stroke-width="8.843" d="m801.136 92.067-42.828 6.259 21.084-37.8-19.188-38.798 42.465 8.37 30.97-30.235 5.163 42.973 38.326 20.11-39.274 18.19-7.282 42.664Z"/><path fill="#ed83b7" d="m802.913 81.553-33.267 4.882 16.36-29.373-14.922-30.13 32.99 6.482L828.12 9.913l4.03 33.38 29.78 15.604-30.5 14.148-5.636 33.146Z"/><path fill="#f3e3e4" d="m805.293 74.737-25.278 3.668L792.48 56.11l-11.3-22.91 25.055 4.966 18.295-17.824 3.02 25.363 22.606 11.89-23.188 10.712-4.323 25.173Z"/><rect width="465.195" height="125.43" x="377.252" y="-407.132" fill="none" rx="0" ry="0" transform="translate(447.9 408.84)"/><path fill="#ee297b" stroke="#faf58c" stroke-width="2.52" d="M829.46 78.633v-48.62q0-5.1 3.17-7.93 3.16-2.83 8.15-2.83 5.22 0 8.33 2.83t3.11 7.93v47.29q0 2.11 1.11 2.94t3.66-.61q5.55-3.22 9.88-5.16t9.54-1.94q7.22 0 10.88 3.77 3.67 3.77 3.67 9.88 0 6.55-3.94 10.1t-12.6 3.55h-22.87q-7.32 0-12.21-1.72-4.88-1.72-7.38-6.27t-2.5-13.21Zm75.04 21.41q-7.44-1.11-9.66-6.82-2.22-5.72.89-14.49l14.65-41.62q2-5.77 4.61-9.88t6.55-6.33 9.82-2.22q8.88 0 13.38 4.89 4.49 4.88 7.49 13.54l14.54 41.62q3.11 8.77 1.16 14.49-1.94 5.71-9.49 6.82-6.1.78-10.6-1.44-4.49-2.22-5.38-7.21-.67-3.33-.17-5.55t.95-3.56q.33-1.11.05-2.16-.27-1.05-1.72-1.05h-20.64q-1.45 0-1.72 1.05-.28 1.05.16 2.16.45 1.34.89 3.56t-.11 5.55q-.89 4.99-5.22 7.21t-10.43 1.44Zm18.76-36.51h16.2l-5.77-18.1q-.22-1.11-.72-1.72t-1.61-.61-1.61.61-.83 1.72Zm89.14 36.75q-10.88 0-19.59-4.5-8.72-4.49-13.71-13.37-5-8.88-5-21.87t5.06-22.42q5.05-9.44 13.87-14.49t20.15-5.05q13.09 0 20.09 3.66 6.99 3.67 6.99 10.88 0 5.55-3 9.16-2.99 3.61-8.21 3.61-4.44 0-8.6-1.17-4.17-1.16-9.71-1.16-7.11 0-11.22 4.1-4.1 4.11-4.1 10.77 0 6.55 4.1 10.93 4.11 4.39 11.22 4.39 3.77 0 6.93-.61 3.17-.61 6.22-1.28t6.6-.67q5.89 0 8.66 3.83 2.78 3.83 2.78 9.49 0 5.67-4.11 9.16-4.11 3.5-10.82 5.05-6.72 1.56-14.6 1.56Zm46.83 0q-5.1 0-8.32-3.11t-3.22-7.88v-58.72q0-4.89 3.16-8.22 3.17-3.33 8.38-3.33 5.55 0 8.72 3.28 3.16 3.27 3.16 8.05v58.94q0 4.77-3.39 7.88-3.38 3.11-8.49 3.11Zm60.5-.23-17.54-.11q-5.11-.22-9.49-1.44-4.39-1.22-7.72-4.16t-5.16-8.16-1.83-13.32q0-7.88 2.17-13.65 2.16-5.78 5.16-9.22 2.99-3.44 5.44-4.21l-.56-2.11h-1.89q-5.1 0-8.04-3.28-2.94-3.27-3.06-8.82-.11-5.55 2.95-8.94 3.05-3.38 8.15-3.38h30.53q11.99 0 17.32 5.71 5.32 5.72 5.32 14.82 0 7.33-3.38 12.21-3.39 4.89-10.16 5.88v1.67q7.33.33 11.93 5.05 4.61 4.72 4.61 13.93 0 9.99-5.77 15.82t-18.98 5.71Zm-20.54-54.72v4.77q0 2.45.89 3.22.89.78 3.33.78h10.21q4.22 0 6.44-1.28 2.22-1.27 2.22-5.05 0-3.88-2.22-5.1t-6.44-1.22h-10.21q-2.44 0-3.33.66-.89.67-.89 3.22Zm0 21.2v5.89q0 2.44.95 3.33.94.88 3.49.88h11.44q4.32 0 6.66-1.55 2.33-1.55 2.33-5.55t-2.33-5.49q-2.34-1.5-6.66-1.5h-11.44q-2.55 0-3.49.77-.95.78-.95 3.22Zm86.37 33.86q-11.88 0-20.09-5.22t-12.43-14.43-4.22-21.2q0-11.88 4.22-21.15 4.22-9.26 12.43-14.54 8.21-5.27 20.09-5.27t20.04 5.27q8.15 5.28 12.37 14.54 4.22 9.27 4.22 21.15 0 11.99-4.22 21.2t-12.37 14.43q-8.16 5.22-20.04 5.22Zm-22.75-42.63q0 3.44 1.66 6.5 1.67 3.05 6.55 4.88t14.54 1.83 14.49-1.83q4.82-1.83 6.49-4.88 1.66-3.06 1.66-6.5 0-3.55-1.66-6.38-1.67-2.83-6.49-4.55-4.83-1.72-14.49-1.72t-14.54 1.72-6.55 4.55q-1.66 2.83-1.66 6.38Zm67.47 18.98q4.11-5.43 9.11-9.37 4.99-3.95 11.1-7.72-2.78-3.11-6.05-5.55-3.28-2.44-6.55-5.05-3.28-2.61-6.27-6.16-2.89-3.66-4-7.71-1.11-4.06.05-7.83 1.17-3.77 4.83-6.22 4-2.77 8.11-2.05 4.1.72 7.77 3.89 3.66 3.16 6.32 7.93 2.45 4.22 4.78 8.05t4.55 7.05q2.99-2.89 4.33-5.5 1.33-2.61 2.38-5.71 1.06-3.11 3.06-7.22 1.66-3.55 4.6-5.71 2.94-2.17 6.61-2.5 3.66-.34 7.21 1.88 3.55 2.11 4.72 5.83 1.16 3.72.11 7.94t-4.16 7.99q-3.55 4.22-8.61 7.49-5.05 3.28-10.6 5.83 5.55 5.11 10.77 9.66t9.44 10.54q4.21 6 3.94 12.1-.28 6.11-5.5 9.55-5.44 3.44-11.21 1.33t-10.1-8.55q-4.22-6.44-6.94-11.15-2.72-4.72-5.27-8.94-.89 2.22-1.5 5.11-.61 2.88-1.66 6.66-1.06 3.77-3.5 8.77-2 4.33-5.55 6.6-3.55 2.28-7.66 2.11t-7.88-2.94q-3.11-2.44-4.05-5.94t-.06-7.33q.89-3.83 3.33-7.16Z"/></g><path fill="transparent" stroke="transparent" d="M730 0h540v127H730z"/></g></svg>